<svg width="180" height="126" viewBox="0 0 180 126" fill="none" xmlns="http://www.w3.org/2000/svg">
<g clip-path="url(#clip0_324_131)">
<path d="M21.8602 61.9931C20.3522 60.03 18.5179 57.9599 16.3516 55.7938C14.0559 53.4923 12.2159 51.4672 10.843 49.7298C9.47007 47.9924 8.35597 46.052 7.5007 43.9028C6.64543 41.7593 6.2178 39.3958 6.2178 36.8235C6.2178 34.7026 6.74672 33.0103 7.80455 31.7411C8.86238 30.4776 10.4941 29.8458 12.7055 29.8458C14.6411 29.8458 16.3741 30.6919 17.9102 32.3842C19.4407 34.0764 20.9712 36.44 22.5073 39.4635C23.7226 41.8101 24.8255 44.1397 25.8158 46.4412L26.0184 46.3735C25.4782 43.711 25.0168 40.4901 24.6342 36.722C24.2516 32.9539 24.0828 29.936 24.1278 27.6797H23.9252C23.9252 28.6274 23.7001 29.4058 23.25 30.015C22.7999 30.6242 22.2147 30.9288 21.4945 30.9288C20.7742 30.9288 19.5814 30.7032 17.9158 30.2519C17.0155 29.9812 16.1378 29.7668 15.2825 29.6089C14.4272 29.4509 13.5945 29.3719 12.7842 29.3719C10.8036 29.3719 8.88488 29.8345 7.03931 30.7596C5.19373 31.6847 3.66888 33.0836 2.47601 34.962C1.28313 36.8348 0.686697 39.1081 0.686697 41.7706C0.686697 44.4331 1.10308 46.6725 1.93584 48.7483C2.7686 50.8242 3.86019 52.7703 5.21061 54.5753C6.56103 56.3804 8.49664 58.5973 11.0231 61.2146C14.129 64.5597 16.6217 68.0006 18.4898 71.5431C20.3578 75.0912 21.2919 78.3516 21.2919 81.33C21.2919 83.7668 20.6392 85.7693 19.3338 87.3262C18.0284 88.8831 16.0928 89.6615 13.5213 89.6615C11.3607 89.6615 9.46444 88.68 7.84393 86.717C6.22343 84.754 4.94053 82.1986 3.9896 79.0623C3.04431 75.926 2.52665 72.5697 2.43662 69.0047H2.23406C2.14403 72.8461 1.8852 76.6819 1.45756 80.5233C1.02993 84.3647 0.546028 87.5688 0.00585938 90.141H0.208423C0.973662 88.8323 2.09901 88.178 3.58448 88.178C4.39473 88.178 5.70014 88.4487 7.50633 88.9902C8.67669 89.3513 9.70076 89.6333 10.5785 89.8364C11.4563 90.0394 12.3904 90.141 13.3807 90.141C16.3066 90.141 18.788 89.4415 20.8136 88.0426C22.8392 86.6437 24.3472 84.7934 25.3432 82.4863C26.3335 80.1849 26.8286 77.6295 26.8286 74.8317C26.8286 72.5302 26.3785 70.3021 25.4782 68.1585C24.5779 66.015 23.3738 63.9561 21.8602 61.9931Z" fill="white"/>
<path d="M34.8687 88.0766C36.7367 89.4529 38.9593 90.1411 41.5251 90.1411C43.2807 90.1411 44.8562 89.7688 46.2572 89.0242C47.6527 88.2796 48.8568 87.1515 49.8752 85.6397C50.888 84.128 51.687 82.2213 52.2722 79.9142L52.0021 79.7788C51.1919 82.5316 50.0665 84.5905 48.6205 85.9443C47.18 87.2981 45.537 87.975 43.6858 87.975C41.9753 87.975 40.4842 87.0048 39.2238 85.0643C37.9634 83.1239 36.9956 80.546 36.3204 77.342C35.6452 74.138 35.24 70.7027 35.105 67.0474C35.105 66.4608 35.195 66.0659 35.3751 65.8628C35.5551 65.6598 36.0278 65.5357 36.793 65.4905H40.6473C42.4029 65.4454 43.7196 65.3326 44.603 65.1521C45.4807 64.9716 46.246 64.5429 46.8987 63.866C47.5514 63.1891 48.2153 62.0835 48.8905 60.5491C49.6558 59.2856 50.241 57.9092 50.6461 56.4144C51.0512 54.9252 51.2538 53.4586 51.2538 52.0089C51.2538 49.4818 50.7024 47.4003 49.5995 45.7757C48.4967 44.1512 47 43.3389 45.1037 43.3389C41.677 43.3389 38.7511 44.6475 36.3204 47.2706C33.8896 49.8879 32.0609 53.3119 30.8455 57.5313C29.6301 61.7563 29.0225 66.2126 29.0225 70.9114C29.0225 75.2944 29.5289 78.9045 30.5417 81.7531C31.5545 84.5961 32.995 86.7115 34.8687 88.0878V88.0766ZM35.6452 55.5626C36.0953 52.4714 36.8155 49.871 37.8058 47.7726C38.7961 45.6742 40.034 44.625 41.5251 44.625C42.6955 44.625 43.6295 45.3357 44.3272 46.7572C45.025 48.1787 45.5089 49.9556 45.7789 52.0766C46.049 54.1975 46.1841 56.4144 46.1841 58.7159C46.1841 60.7917 46.0265 62.2358 45.7114 63.0537C45.3963 63.866 44.7886 64.3962 43.8884 64.6444C42.9881 64.8926 41.2944 65.0167 38.8186 65.0167L35.3694 65.0844C35.1444 65.0844 35.0318 64.9716 35.0318 64.7459C34.9868 61.7224 35.1894 58.6595 35.6395 55.5683L35.6452 55.5626Z" fill="white"/>
<path d="M111.86 47.1797C112.327 47.6987 112.547 48.3192 112.682 48.9904C112.862 49.8704 112.952 51.2581 112.952 53.159V80.867C112.952 83.9412 113.627 86.254 114.978 87.8109C116.328 89.3677 118.174 90.1462 120.52 90.1462C122.185 90.1462 123.761 89.5934 125.252 88.4878C126.738 87.3822 128.448 85.656 130.389 83.3038C130.389 83.3038 130.794 89.4016 130.806 89.4016V89.4693H157.285V89.3339C156.205 89.1083 155.35 88.7247 154.719 88.1832C154.089 87.6416 153.605 86.8068 153.268 85.6786C152.93 84.5504 152.761 82.971 152.761 80.9346L152.559 49.9776C153.639 48.714 154.686 47.7664 155.698 47.1346C156.711 46.5028 157.713 46.1869 158.703 46.1869C160.189 46.1869 161.382 46.8977 162.287 48.3192C163.188 49.7407 163.638 51.5627 163.638 53.7739V80.9403C163.638 82.971 163.492 84.5561 163.199 85.6843C162.906 86.8124 162.445 87.6473 161.815 88.1888C161.185 88.7303 160.307 89.1139 159.181 89.3395V89.4749L162.085 89.3395C164.11 89.2042 165.708 89.1365 166.884 89.1365C168.06 89.1365 169.698 89.2042 171.954 89.3395L174.79 89.4749V89.3395C173.17 88.8883 171.994 88.0647 171.273 86.8688C170.553 85.673 170.193 83.6987 170.193 80.9403V51.9462C170.193 48.8325 169.428 46.5818 167.897 45.2054C166.367 43.829 164.358 43.2537 161.882 43.4793C159.902 43.6598 158.14 44.3254 156.61 45.4762C155.08 46.6269 153.678 48.0823 152.418 49.8478L152.283 43.7501L151.405 43.6147C150.325 44.2465 148.794 44.9798 146.808 45.8146C144.828 46.6495 143.111 47.2925 141.671 47.7438V47.8792C143.066 47.7438 144.169 48.1612 144.979 49.1315C145.79 50.1017 146.195 51.6698 146.195 53.8416V80.9403C146.195 82.8977 146.161 85.0638 145.328 86.8745C144.721 88.1944 143.618 88.5329 142.279 88.6796C141.283 88.7924 140.062 88.7755 139.212 88.155C138.323 87.5006 137.777 86.2596 137.473 85.2273C136.984 83.5464 136.933 81.73 136.933 79.9926V44.1562L136.798 44.0885L134.638 44.4947L131.188 45.1716C129.253 45.4875 127.61 45.7808 126.254 46.0515V46.2546C127.514 46.4351 128.426 46.7284 128.988 47.1346C129.551 47.5407 129.922 48.1838 130.102 49.0638C130.282 49.9437 130.372 51.3314 130.372 53.2324V82.8356C128.977 84.4151 127.818 85.5207 126.895 86.1524C125.972 86.7842 124.993 87.1001 123.958 87.1001C123.058 87.1001 122.281 86.8406 121.628 86.3217C120.976 85.8027 120.458 84.9566 120.075 83.7833C119.693 82.61 119.502 81.0531 119.502 79.107V45.149H109.176L109.137 45.3521C109.137 45.3521 109.115 45.3972 109.098 45.4254C109.565 45.5439 110.02 45.7639 110.414 46.029C110.921 46.3731 111.438 46.7228 111.849 47.1797H111.86Z" fill="white"/>
<path d="M1.16423 21.4296C1.94072 22.0671 3.05482 22.3886 4.5009 22.3886C5.59811 22.3886 6.59968 22.1855 7.51121 21.7794C8.42275 21.3732 9.27239 20.7415 10.0601 19.8897C10.8479 19.0379 11.5962 17.9323 12.2996 16.5898C13.0029 15.2473 13.6894 13.6453 14.3702 11.7781C14.7191 10.8079 15.0229 9.96177 15.2874 9.23974C15.5518 8.51771 15.7769 7.89721 15.9682 7.37261C16.1595 6.84801 16.3227 6.41366 16.4578 6.06393C16.5928 5.7142 16.711 5.42087 16.8122 5.1896C16.9135 4.95268 17.0036 4.76089 17.0823 4.61423C17.1611 4.46757 17.2342 4.33783 17.313 4.22501C17.3974 4.09527 17.4875 3.97117 17.5887 3.85271C17.6844 3.73425 17.7969 3.61579 17.9151 3.49734C18.0332 3.50862 18.1514 3.50862 18.2696 3.50862H18.6241C19.3612 3.50862 20.0533 3.45785 20.6891 3.35631C21.3249 3.25478 21.8763 3.11376 22.3433 2.93325C22.5065 2.8712 22.6528 2.80351 22.7879 2.73018L15.8332 21.8922H17.7182L20.3965 14.5534C21.1167 13.2165 21.7863 12.0771 22.4052 11.1407C23.0242 10.2043 23.6094 9.43717 24.1777 8.84488C24.7403 8.25259 25.2918 7.81824 25.8319 7.54748C26.3665 7.27672 26.9235 7.13569 27.5031 7.13569C28.1558 7.13569 28.6397 7.33312 28.9492 7.72234C29.2586 8.1172 29.4162 8.64181 29.4162 9.30743C29.4162 9.64024 29.3487 10.0577 29.208 10.5541C29.0673 11.0505 28.8929 11.592 28.6791 12.173C28.4653 12.754 28.2346 13.3576 27.9926 13.9837C27.745 14.6098 27.5143 15.2191 27.3061 15.817C27.0923 16.4149 26.9179 16.9677 26.7772 17.4867C26.6366 18 26.569 18.4456 26.569 18.8123C26.569 19.3143 26.6366 19.7712 26.7716 20.183C26.9066 20.5948 27.1092 20.9445 27.3793 21.2322C27.6494 21.5199 27.9814 21.7455 28.3752 21.9035C28.7691 22.0614 29.2249 22.1404 29.7482 22.1404C30.4121 22.1404 31.0367 22.0107 31.6219 21.7568C32.2071 21.503 32.7866 21.1138 33.3493 20.5892C33.912 20.0646 34.4803 19.3989 35.0429 18.5923C35.0936 18.519 35.1442 18.44 35.1949 18.3667C35.3412 19.4553 35.735 20.3128 36.3765 20.9333C37.2092 21.7399 38.3965 22.1404 39.9326 22.1404C40.8779 22.1404 41.7669 21.9825 42.6053 21.6609C43.4437 21.3394 44.2314 20.8994 44.9629 20.3297C45.7 19.7656 46.3809 19.0887 47.0054 18.3046C47.63 17.5205 48.2039 16.6631 48.7328 15.7324L49.3968 14.5534L49.0536 14.3109L48.3896 15.4898C47.962 16.24 47.4668 16.9734 46.8985 17.6954C46.3302 18.4174 45.7 19.0548 45.0136 19.6189C44.3271 20.183 43.5787 20.6343 42.7685 20.9784C41.9582 21.3225 41.1086 21.4973 40.2196 21.4973C39.1505 21.4973 38.3627 21.2379 37.8676 20.7133C37.3724 20.1887 37.1192 19.3369 37.1192 18.1523C37.1192 17.3795 37.1867 16.618 37.3274 15.8678C37.4681 15.1232 37.6594 14.4011 37.907 13.7129C38.9254 13.7129 39.8369 13.6453 40.6359 13.5042C41.4349 13.3632 42.1664 13.1545 42.8304 12.8725C43.3649 12.6525 43.8488 12.3873 44.2765 12.0884C44.7041 11.7838 45.0755 11.4622 45.3793 11.1125C45.6831 10.7628 45.9195 10.3905 46.0826 10.0013C46.2458 9.61203 46.3246 9.20589 46.3246 8.79975C46.3246 8.07772 46.0826 7.51363 45.5931 7.11313C45.1036 6.71263 44.434 6.50956 43.5844 6.50956C42.7347 6.50956 41.9076 6.71263 41.0748 7.11313C40.2421 7.51363 39.4656 8.06644 38.7397 8.77719C38.0195 9.48229 37.378 10.3228 36.821 11.293C36.2639 12.2632 35.8307 13.3237 35.5268 14.4632C35.3918 14.9765 35.2905 15.4729 35.2286 15.958C35.1667 16.4431 35.133 16.9057 35.133 17.34C35.133 17.4585 35.1386 17.5713 35.1442 17.6841C35.0429 17.8364 34.9417 17.9944 34.8404 18.1354C34.3115 18.8913 33.7882 19.5174 33.2649 20.0138C32.7416 20.5102 32.2127 20.8825 31.6838 21.1307C31.1549 21.3789 30.6034 21.503 30.0295 21.503C29.3768 21.503 28.8929 21.3281 28.5834 20.9784C28.2739 20.6286 28.1164 20.1605 28.1164 19.5738C28.1164 19.2241 28.1839 18.801 28.3246 18.299C28.4653 17.7969 28.6397 17.261 28.8535 16.68C29.0673 16.099 29.298 15.5011 29.54 14.8862C29.7875 14.2657 30.0182 13.6678 30.2264 13.0755C30.4403 12.4889 30.6147 11.9361 30.7553 11.4115C30.896 10.8925 30.9635 10.4412 30.9635 10.0577C30.9635 9.52178 30.896 9.03667 30.761 8.60232C30.6259 8.16797 30.4234 7.79568 30.1533 7.48543C29.8832 7.17518 29.5512 6.93262 29.1573 6.7634C28.7635 6.59417 28.3021 6.50956 27.7844 6.50956C27.1655 6.50956 26.5803 6.62802 26.0401 6.85929C25.4943 7.09621 24.9654 7.44594 24.4478 7.91977C23.9301 8.39361 23.4068 8.99154 22.8835 9.70793C22.3602 10.43 21.8088 11.2761 21.2292 12.2463L25.6856 0H23.7838L23.4012 1.06048C23.2661 1.03792 23.103 1.02664 22.8891 1.02664C22.1745 1.02664 21.4543 1.13945 20.7341 1.35945C20.0139 1.57944 19.3049 1.88969 18.6184 2.27891C17.8251 2.25071 17.0598 2.18866 16.3115 2.08712C15.5631 1.98558 14.8204 1.87841 14.0889 1.75995C13.3574 1.64149 12.6203 1.53996 11.8832 1.44406C11.1461 1.34817 10.3977 1.30304 9.6325 1.30304C7.73065 1.30304 6.27332 1.62457 5.26613 2.26199C4.25894 2.8994 3.75254 3.82451 3.75254 5.02601C3.75254 5.47728 3.82568 5.88342 3.97198 6.2388C4.11828 6.59417 4.32647 6.89878 4.60218 7.14698C4.87789 7.39517 5.20987 7.58132 5.60374 7.7167C5.99761 7.84644 6.4365 7.91413 6.93165 7.91413C7.51684 7.91413 8.13578 7.82388 8.78286 7.64337C9.42994 7.46286 10.032 7.21467 10.5947 6.8875L10.3415 6.58289C10.1051 6.71827 9.84632 6.84237 9.56498 6.95519C9.28364 7.068 8.99668 7.1639 8.70408 7.24287C8.41149 7.32184 8.11327 7.38389 7.81506 7.42902C7.51684 7.47415 7.2355 7.49107 6.95979 7.49107C6.56029 7.49107 6.19455 7.4403 5.8682 7.34441C5.54185 7.24851 5.26051 7.09621 5.01856 6.89878C4.78223 6.70135 4.59655 6.44751 4.47276 6.13726C4.34897 5.82701 4.28145 5.466 4.28145 5.04857C4.28145 4.63115 4.3546 4.25321 4.5009 3.90912C4.64719 3.57067 4.88351 3.27734 5.20987 3.03479C5.53622 2.79223 5.95823 2.60044 6.48151 2.46506C6.99918 2.32968 7.635 2.26199 8.39461 2.26199C9.0642 2.26199 9.75066 2.30711 10.4484 2.40301C11.1461 2.4989 11.8551 2.60608 12.5697 2.73582C13.2843 2.86556 14.0157 2.9953 14.7528 3.12504C15.49 3.25478 16.2327 3.35631 16.9754 3.42401C16.4915 3.83579 16.047 4.28142 15.6363 4.76653C15.2255 5.25165 14.8766 5.76496 14.5784 6.30085C14.494 6.44751 14.4152 6.59417 14.3365 6.74647C14.2577 6.89878 14.1733 7.09057 14.0776 7.32184C13.982 7.55312 13.8638 7.83516 13.7288 8.16797C13.5937 8.50078 13.4249 8.91821 13.2224 9.4146C13.0198 9.911 12.7835 10.5146 12.5078 11.2084C12.2321 11.9079 11.9057 12.7371 11.5343 13.7017C11.0842 14.8411 10.6678 15.8339 10.2908 16.68C9.91384 17.5262 9.5481 18.2482 9.19361 18.8518C8.83913 19.4553 8.49027 19.9574 8.14703 20.3466C7.8038 20.7415 7.44369 21.0461 7.06107 21.2717C6.68408 21.4973 6.27895 21.6553 5.84569 21.7399C5.41243 21.8245 4.93416 21.8696 4.41649 21.8696C3.13922 21.8696 2.1883 21.6045 1.5581 21.0686C0.927904 20.5384 0.612805 19.743 0.612805 18.6995C0.612805 18.2651 0.6747 17.9492 0.792862 17.7462C0.911024 17.5487 1.09671 17.3908 1.33866 17.278C1.58623 17.1764 1.7888 17.0862 1.95197 17.0072C2.11515 16.9282 2.23894 16.8605 2.33459 16.7872C2.43025 16.7195 2.49214 16.6406 2.53153 16.5559C2.57092 16.4713 2.5878 16.3698 2.5878 16.2513C2.5878 16.0031 2.5259 15.817 2.40211 15.6816C2.27833 15.5519 2.1039 15.4842 1.88445 15.4842C1.63125 15.4842 1.3893 15.5688 1.16423 15.738C0.939157 15.9072 0.742221 16.1385 0.573418 16.4262C0.404615 16.7139 0.269573 17.0523 0.162665 17.4359C0.0557562 17.8195 0.0107422 18.2313 0.0107422 18.6656C0.0107422 19.8615 0.398988 20.7753 1.17548 21.4127L1.16423 21.4296ZM39.2293 10.7628C39.6794 10.0069 40.1633 9.34691 40.681 8.78847C41.1986 8.23002 41.7388 7.79568 42.2958 7.47979C42.8529 7.1639 43.3987 7.00595 43.9332 7.00595C44.1189 7.00595 44.2933 7.02852 44.4565 7.068C44.6197 7.11313 44.7604 7.18082 44.8785 7.27672C44.9967 7.37261 45.0923 7.50235 45.1599 7.65465C45.2274 7.80696 45.2611 7.99875 45.2611 8.23002C45.2611 8.69257 45.1711 9.13256 45.0023 9.56127C44.8279 9.98997 44.5972 10.3848 44.3158 10.7515C44.0289 11.1181 43.7025 11.4453 43.3312 11.7274C42.9598 12.015 42.5828 12.2463 42.1889 12.4268C41.6938 12.6581 41.1198 12.8443 40.4559 12.9966C39.7919 13.1432 38.9929 13.2278 38.0589 13.2448C38.3909 12.3479 38.7791 11.5243 39.2349 10.7628H39.2293ZM21.1955 1.62457C21.7469 1.46098 22.2927 1.38201 22.8272 1.38201C23.0298 1.38201 23.1705 1.39893 23.2661 1.42714L23.148 1.75995C23.148 1.75995 23.1086 1.77687 23.0805 1.78815C22.8666 1.86713 22.5853 1.9461 22.2252 2.01379C21.8707 2.08148 21.4599 2.13789 21.0098 2.18866C20.554 2.23378 20.087 2.26763 19.6031 2.28455C20.1151 2.01379 20.6441 1.7938 21.1955 1.63021V1.62457Z" fill="white"/>
<path d="M179.904 85.4146L177.378 85.6685C177.946 90.4858 175.116 94.299 171.723 97.3902C168.797 100.07 165.258 102.072 161.538 103.432C150.392 107.42 138.064 106.85 126.591 104.548C116.288 102.365 106.554 98.1743 96.3917 95.1903C95.4352 94.9251 94.4561 94.6544 93.4715 94.378C96.3692 86.4582 98.2711 78.1379 100.803 69.4059C102.491 63.5901 105.034 55.3545 106.227 52.1166C107.415 48.8957 107.679 48.1454 109.097 45.4209C108.984 45.3927 108.866 45.3645 108.754 45.3476V45.1445H97.7084L97.6803 45.3532C98.8113 45.844 99.6778 46.8762 100.274 48.4331C100.589 49.2567 100.938 50.2664 100.916 51.2987C100.888 52.6807 98.7381 59.5569 97.7309 63.5394C96.2961 69.2197 94.9175 74.6744 93.342 79.943L91.3614 85.7136L87.3214 58C86.7644 54.3278 86.905 51.4284 87.7772 49.4146C88.6662 47.3614 89.9998 46.0358 91.7666 45.466L91.7947 45.1445C91.7947 45.1445 77.891 45.3419 74.9763 45.1783C74.7963 44.6255 74.5205 44.1574 74.1492 43.7738C73.4289 43.0292 72.4611 42.6794 71.2458 42.7246C69.6703 42.8148 68.348 43.7061 67.2902 45.3983C66.2323 47.0906 65.4108 49.2398 64.8256 51.8346C64.308 54.1304 63.8578 56.7703 63.4865 59.7543L63.3402 59.32L63.3289 59.3369L63.2051 43.6045L62.5974 43.3338C61.6071 43.9656 60.0654 44.6989 57.9666 45.5337C55.8735 46.3686 54.0785 47.0342 52.5931 47.5306V47.7337C54.0335 47.4629 55.1589 47.8578 55.9691 48.9182C56.7794 49.9787 57.1845 51.6371 57.1845 53.8991L57.3871 81.0655C57.3871 83.7732 57.0607 85.7305 56.408 86.9264C56.3517 87.0336 56.2842 87.1295 56.2167 87.231C58.141 86.9941 60.1442 86.87 62.243 86.87C63.1939 86.87 64.1504 86.8982 65.107 86.9433C64.3699 85.7587 63.9816 83.807 63.9366 81.0655L63.734 63.3814C63.644 60.7641 63.9366 58.5246 64.6118 56.6744C65.287 54.8242 66.1085 53.414 67.0763 52.4381C68.0441 51.4679 68.9557 50.9828 69.8109 50.9828C70.6662 50.9828 71.3189 51.1971 71.7691 51.6259C72.2192 52.0546 72.4218 52.6751 72.3767 53.4873L72.4443 53.555C73.1645 52.833 73.8059 51.8176 74.3686 50.509C74.9313 49.2003 75.2126 48.0044 75.2126 46.9214C75.2126 46.5547 75.1845 46.205 75.1282 45.8835C76.051 46.5378 76.7487 47.1414 77.2214 47.7055C77.7841 48.3824 78.3017 49.4541 78.7631 50.9095C79.2133 52.3422 79.7309 54.576 80.2992 57.5431L85.881 87.3382C86.2186 89.1489 87.7941 90.2263 89.6847 89.9894L89.8928 89.9612C89.8928 89.9612 89.8703 90.0232 89.8309 90.1248C89.5834 90.7678 88.6943 93.0411 88.6775 93.0411C74.7794 89.2448 59.137 85.7813 46.0379 91.7324C41.9416 93.7236 38.1717 96.7189 35.6396 100.555C33.2989 104.368 32.6575 109.168 34.0585 113.444C35.5777 118.087 39.6853 121.426 43.9672 123.372C48.4574 125.442 53.4596 126.221 58.3605 125.933C66.4124 125.448 74.4924 122.503 80.5637 117.094C86.2523 112.09 89.6396 105.152 92.1042 98.1461C100.482 100.357 108.478 103.392 116.868 105.891C132.802 110.612 153.638 112.197 168.437 103.437C168.797 103.195 169.545 102.732 169.933 102.473L170.896 101.773L171.374 101.423L171.835 101.045L172.752 100.284L173.625 99.4717L174.058 99.0655C177.057 96.0702 179.769 92.3134 179.943 87.8853C179.977 87.0505 179.943 86.2213 179.859 85.409L179.904 85.4146ZM77.3339 113.455C71.5721 118.589 63.6834 121.206 56.0198 121.217C47.3208 121.228 35.4089 116.033 38.4586 105.547C38.92 104.035 39.6684 102.614 40.7319 101.452C42.7125 99.0655 45.2276 97.1758 48.0073 95.7882C59.9641 90.2827 74.6893 93.6559 87.3552 96.9164C85.0988 103.087 82.2967 109.118 77.3395 113.455H77.3339Z" fill="white"/>
</g>
<defs>
<clipPath id="clip0_324_131">
<rect width="180" height="126" fill="white"/>
</clipPath>
</defs>
</svg>
