<svg width="56" height="109" viewBox="0 0 56 109" fill="none" xmlns="http://www.w3.org/2000/svg">
<g clip-path="url(#clip0_324_128)">
<path d="M56 53.6397C55.6943 38.505 52.6252 25.4011 46.8693 14.6789C43.0813 7.81316 38.8062 3.40304 33.7786 1.18844C31.899 0.40092 29.9477 0 27.9725 0C25.0301 0 22.0661 0.909228 19.4007 2.63223C15.522 5.14991 12.1472 9.07796 9.0734 14.6574C3.36521 25.4274 0.140914 39.5717 0 54.5107C0.140914 69.4283 3.36521 83.575 9.08534 94.3593C12.1496 99.9244 15.5268 103.852 19.4055 106.37C22.0685 108.091 25.0301 109 27.9749 109C29.9477 109 31.9014 108.599 33.7978 107.804C38.8062 105.599 43.0837 101.187 46.8764 94.3092C52.6252 83.5989 55.6943 70.495 56 55.3436C56 55.1503 56 54.957 56 54.7613V54.2315C56 54.0382 56 53.8425 56 53.6349V53.6397ZM51.8634 54.7398C51.8681 54.9475 51.8753 55.1527 51.8777 55.3484C51.9804 66.2305 50.6262 86.4387 40.4088 99.5116C37.6741 102.876 34.6958 105.077 31.567 106.046C30.4182 106.392 29.2479 106.566 28.0848 106.566C25.5866 106.566 23.1361 105.781 20.8074 104.239C15.7513 100.829 11.746 94.839 8.56707 85.9447C5.30695 76.3203 3.82855 65.7508 4.1677 54.5298V54.4964V54.463C3.82616 43.242 5.30695 32.6726 8.5599 23.0648C11.746 14.1539 15.7513 8.16396 20.8003 4.75853C23.1361 3.21213 25.5866 2.427 28.0848 2.427C29.2479 2.427 30.4182 2.6012 31.5575 2.94485C34.6958 3.91612 37.6741 6.11641 40.3944 9.46457C50.6262 22.5565 51.9804 42.7648 51.8777 53.6349C51.8729 53.8402 51.8681 54.0478 51.8634 54.253L51.8562 54.494L51.8634 54.7351V54.7398Z" fill="white"/>
<path d="M35.9187 58.2148C34.5048 56.382 32.7875 54.4561 30.7646 52.4324C28.6151 50.2847 26.8955 48.3994 25.6105 46.7766C24.3232 45.1562 23.2795 43.3425 22.4794 41.3427C21.6769 39.3429 21.278 37.1402 21.278 34.7395C21.278 32.7611 21.7724 31.1789 22.7636 30C23.7548 28.8211 25.2833 28.2317 27.3492 28.2317C29.162 28.2317 30.7861 29.0216 32.2191 30.6014C33.6521 32.1812 35.0852 34.3839 36.5206 37.2047C37.6598 39.3954 38.6916 41.5647 39.6183 43.7124L39.807 43.648C39.3006 41.1637 38.8683 38.1616 38.5101 34.644C38.1518 31.1264 37.9942 28.3152 38.0348 26.208H37.8461C37.8461 27.0934 37.6335 27.8188 37.2132 28.3892C36.7904 28.9572 36.2435 29.2412 35.57 29.2412C34.8965 29.2412 33.7763 29.0311 32.2191 28.6088C31.376 28.3558 30.552 28.1577 29.7519 28.0074C28.9518 27.8594 28.1708 27.7854 27.4113 27.7854C25.5556 27.7854 23.7643 28.2174 22.0351 29.0813C20.306 29.9452 18.8825 31.2505 17.7671 32.9998C16.6494 34.749 16.0905 36.8658 16.0905 39.3501C16.0905 41.8343 16.4798 43.9224 17.2608 45.8578C18.0394 47.7956 19.064 49.6069 20.3274 51.2917C21.5933 52.9765 23.4037 55.0408 25.7658 57.4845C28.6748 60.6012 31.0034 63.8133 32.7541 67.1209C34.5024 70.4285 35.3789 73.4712 35.3789 76.2514C35.3789 78.5256 34.7675 80.3894 33.5447 81.8428C32.3218 83.2961 30.509 84.0239 28.1064 84.0239C26.0834 84.0239 24.3112 83.1076 22.7946 81.2748C21.2756 79.442 20.0743 77.0627 19.1906 74.1346C18.3045 71.2065 17.8197 68.0802 17.7361 64.7512H17.5474C17.4614 68.3332 17.2202 71.9128 16.8189 75.4925C16.4177 79.0745 15.9663 82.0647 15.46 84.4654H15.6486C16.3651 83.2436 17.4184 82.6327 18.8108 82.6327C19.5703 82.6327 20.7932 82.8856 22.4794 83.3915C23.5756 83.7304 24.5357 83.9929 25.3573 84.1815C26.1789 84.37 27.0531 84.4654 27.9822 84.4654C30.7216 84.4654 33.0407 83.8139 34.9395 82.5062C36.8358 81.2008 38.2497 79.473 39.1764 77.3252C40.1031 75.1775 40.5665 72.7982 40.5665 70.1851C40.5665 68.0373 40.1437 65.9635 39.3006 63.9613C38.4575 61.9614 37.3302 60.0428 35.9163 58.21L35.9187 58.2148Z" fill="white"/>
</g>
<defs>
<clipPath id="clip0_324_128">
<rect width="56" height="109" fill="white"/>
</clipPath>
</defs>
</svg>
