<svg width="68" height="132" viewBox="0 0 68 132" fill="none" xmlns="http://www.w3.org/2000/svg">
<g clip-path="url(#clip0_324_128)">
<path d="M68 64.9582C67.6288 46.6299 63.9021 30.761 56.9127 17.7763C52.313 9.46181 47.1218 4.12112 41.0169 1.43921C38.7345 0.485517 36.3651 0 33.9666 0C30.3937 0 26.7946 1.10108 23.558 3.18765C18.8481 6.23658 14.7502 10.9935 11.0177 17.7503C4.08632 30.7928 0.171109 47.9217 0 66.013C0.171109 84.0783 4.08632 101.21 11.0322 114.27C14.7531 121.009 18.8539 125.766 23.5638 128.815C26.7975 130.899 30.3937 132 33.9695 132C36.3651 132 38.7374 131.514 41.0401 130.552C47.1218 127.882 52.3159 122.538 56.9214 114.209C63.9021 101.239 67.6288 85.3701 68 67.0216C68 66.7875 68 66.5534 68 66.3165V65.6749C68 65.4408 68 65.2038 68 64.9524V64.9582ZM62.9769 66.2904C62.9827 66.5419 62.9914 66.7904 62.9943 67.0274C63.119 80.2057 61.4746 104.678 49.0678 120.509C45.7471 124.584 42.1306 127.249 38.3314 128.422C36.9364 128.841 35.5153 129.052 34.103 129.052C31.0694 129.052 28.0938 128.101 25.2662 126.234C19.1265 122.105 14.263 114.851 10.4029 104.08C6.44415 92.4246 4.64895 79.6248 5.06078 66.0361V65.9957V65.9552C4.64605 52.3665 6.44415 39.5668 10.3942 27.9317C14.263 17.1405 19.1265 9.88663 25.2575 5.76263C28.0938 3.88992 31.0694 2.93911 34.103 2.93911C35.5153 2.93911 36.9364 3.15008 38.3198 3.56624C42.1306 4.74246 45.7471 7.40703 49.0504 11.4617C61.4746 27.3161 63.119 51.7885 62.9943 64.9524C62.9885 65.2009 62.9827 65.4523 62.9769 65.7009L62.9682 65.9928L62.9769 66.2847V66.2904Z" fill="white"/>
<path d="M43.6152 70.4987C41.8983 68.2792 39.8131 65.947 37.3567 63.4963C34.7465 60.8953 32.6584 58.6122 31.0981 56.647C29.5349 54.6847 28.2676 52.4884 27.296 50.0666C26.3216 47.6448 25.8372 44.9773 25.8372 42.07C25.8372 39.6742 26.4376 37.7581 27.6411 36.3305C28.8447 34.9028 30.7008 34.189 33.2094 34.189C35.4107 34.189 37.3828 35.1456 39.1229 37.0587C40.863 38.9719 42.6031 41.6394 44.3461 45.0553C45.7294 47.7083 46.9823 50.3353 48.1076 52.9363L48.3367 52.8583C47.7218 49.8498 47.1969 46.2142 46.7619 41.9544C46.3269 37.6945 46.1354 34.2901 46.1847 31.7383H45.9556C45.9556 32.8105 45.6975 33.689 45.1871 34.3797C44.6738 35.0675 44.0096 35.4115 43.1918 35.4115C42.3739 35.4115 41.0138 35.1571 39.1229 34.6456C38.0991 34.3393 37.0986 34.0994 36.127 33.9173C35.1555 33.7382 34.2071 33.6486 33.2848 33.6486C31.0314 33.6486 28.8563 34.1716 26.7566 35.2178C24.6569 36.264 22.9284 37.8448 21.574 39.9632C20.2167 42.0815 19.5381 44.6449 19.5381 47.6534C19.5381 50.6619 20.0108 53.1906 20.9592 55.5344C21.9046 57.8811 23.1488 60.0746 24.683 62.1149C26.2201 64.1552 28.4184 66.6551 31.2866 69.6144C34.819 73.3887 37.6467 77.2786 39.7725 81.2842C41.8954 85.2897 42.9598 88.9744 42.9598 92.3412C42.9598 95.0954 42.2173 97.3525 40.7325 99.1125C39.2476 100.872 37.0464 101.754 34.1288 101.754C31.6724 101.754 29.5204 100.644 27.6788 98.4247C25.8343 96.2051 24.3756 93.3238 23.3025 89.7778C22.2265 86.2318 21.6378 82.4459 21.5363 78.4144H21.3072C21.2028 82.7523 20.9099 87.0872 20.4226 91.4222C19.9354 95.7601 19.3873 99.3812 18.7725 102.289H19.0016C19.8716 100.809 21.1506 100.069 22.8414 100.069C23.7636 100.069 25.2485 100.375 27.296 100.988C28.6272 101.398 29.7931 101.716 30.7907 101.945C31.7884 102.173 32.8498 102.289 33.978 102.289C37.3045 102.289 40.1205 101.5 42.4261 99.9159C44.7289 98.3351 46.4458 96.2427 47.571 93.6417C48.6963 91.0407 49.2589 88.1594 49.2589 84.9949C49.2589 82.3939 48.7456 79.8825 47.7218 77.4578C46.6981 75.036 45.3292 72.7125 43.6123 70.493L43.6152 70.4987Z" fill="white"/>
</g>
<defs>
<clipPath id="clip0_324_128">
<rect width="68" height="132" fill="white"/>
</clipPath>
</defs>
</svg>
