<svg width="400" height="149" viewBox="0 0 400 149" fill="none" xmlns="http://www.w3.org/2000/svg">
<g clip-path="url(#clip0_324_144)">
<path d="M158.88 52.0004C156.58 49.0255 153.783 45.8882 150.48 42.6056C146.98 39.1178 144.175 36.0489 142.081 33.416C139.988 30.7831 138.289 27.8424 136.985 24.5854C135.681 21.337 135.029 17.7552 135.029 13.8571C135.029 10.6429 135.836 8.07831 137.448 6.15491C139.061 4.24005 141.549 3.28262 144.921 3.28262C147.872 3.28262 150.515 4.56489 152.857 7.12943C155.19 9.69398 157.524 13.2758 159.866 17.8578C161.719 21.4139 163.401 24.9445 164.911 28.4322L165.22 28.3297C164.396 24.2948 163.692 19.4136 163.109 13.7032C162.526 7.99283 162.268 3.41939 162.337 0H162.028C162.028 1.43614 161.685 2.61583 160.999 3.53907C160.312 4.46231 159.42 4.92392 158.322 4.92392C157.224 4.92392 155.405 4.58198 152.865 3.89811C151.493 3.48778 150.154 3.16294 148.85 2.92358C147.546 2.68422 146.277 2.56454 145.041 2.56454C142.021 2.56454 139.096 3.26552 136.282 4.66747C133.468 6.06942 131.143 8.18944 129.324 11.0361C127.505 13.8742 126.596 17.3192 126.596 21.3541C126.596 25.389 127.231 28.7827 128.5 31.9286C129.77 35.0744 131.434 38.0236 133.493 40.7592C135.552 43.4947 138.504 46.8542 142.356 50.8207C147.092 55.89 150.892 61.1045 153.741 66.473C156.589 71.85 158.013 76.791 158.013 81.3046C158.013 84.9975 157.018 88.0322 155.027 90.3916C153.037 92.751 150.086 93.9307 146.165 93.9307C142.871 93.9307 139.979 92.4433 137.509 89.4684C135.038 86.4935 133.082 82.6211 131.632 77.8681C130.19 73.1151 129.401 68.0288 129.264 62.6262H128.955C128.818 68.4477 128.423 74.2606 127.771 80.0822C127.119 85.9037 126.381 90.7592 125.558 94.6573H125.866C127.033 92.6741 128.749 91.6824 131.014 91.6824C132.249 91.6824 134.24 92.0928 136.994 92.9134C138.778 93.4605 140.34 93.888 141.678 94.1957C143.016 94.5034 144.441 94.6573 145.951 94.6573C150.412 94.6573 154.195 93.5973 157.284 91.4773C160.372 89.3573 162.672 86.5534 164.19 83.057C165.7 79.5693 166.455 75.6968 166.455 71.4567C166.455 67.969 165.769 64.5923 164.396 61.3439C163.023 58.0955 161.187 54.9753 158.88 52.0004Z" fill="#7D0A0D"/>
<path d="M178.716 91.5285C181.564 93.6143 184.953 94.6572 188.865 94.6572C191.542 94.6572 193.944 94.093 196.08 92.9646C198.208 91.8362 200.044 90.1265 201.597 87.8355C203.141 85.5445 204.359 82.6551 205.251 79.1588L204.84 78.9536C203.604 83.1253 201.888 86.2455 199.683 88.2971C197.487 90.3488 194.982 91.3746 192.159 91.3746C189.551 91.3746 187.278 89.9043 185.356 86.9636C183.434 84.0229 181.959 80.1162 180.929 75.2607C179.9 70.4052 179.282 65.1991 179.076 59.6597C179.076 58.7707 179.213 58.1723 179.488 57.8645C179.762 57.5568 180.483 57.3687 181.65 57.3003H187.527C190.203 57.232 192.211 57.061 193.558 56.7874C194.896 56.5139 196.063 55.8642 197.058 54.8384C198.053 53.8126 199.066 52.1371 200.095 49.8119C201.262 47.897 202.154 45.8112 202.772 43.5458C203.39 41.289 203.698 39.0664 203.698 36.8695C203.698 33.0398 202.858 29.8854 201.176 27.4234C199.495 24.9615 197.213 23.7305 194.321 23.7305C189.097 23.7305 184.635 25.7137 180.929 29.6888C177.223 33.6553 174.435 38.8442 172.581 45.2384C170.728 51.6413 169.802 58.3946 169.802 65.5154C169.802 72.1576 170.574 77.6286 172.118 81.9456C173.662 86.254 175.859 89.4597 178.716 91.5456V91.5285ZM179.9 42.2465C180.586 37.5619 181.684 33.6211 183.194 30.441C184.704 27.261 186.591 25.671 188.865 25.671C190.649 25.671 192.074 26.7481 193.137 28.9023C194.201 31.0565 194.939 33.7493 195.351 36.9635C195.763 40.1777 195.969 43.5373 195.969 47.0251C195.969 50.1709 195.728 52.3593 195.248 53.5989C194.767 54.8298 193.841 55.6334 192.468 56.0095C191.096 56.3857 188.513 56.5737 184.738 56.5737L179.479 56.6763C179.136 56.6763 178.964 56.5053 178.964 56.1634C178.896 51.5814 179.205 46.9396 179.891 42.255L179.9 42.2465Z" fill="#7D0A0D"/>
<path d="M296.105 29.5423C296.817 30.3288 297.152 31.2691 297.358 32.2864C297.632 33.62 297.769 35.7229 297.769 38.6037V80.5939C297.769 85.2528 298.799 88.7577 300.858 91.1171C302.917 93.4764 305.731 94.6561 309.308 94.6561C311.848 94.6561 314.25 93.8184 316.524 92.1429C318.789 90.4674 321.397 87.8515 324.357 84.2868C324.357 84.2868 324.974 93.5277 324.991 93.5277V93.6303H365.365V93.4251C363.718 93.0832 362.414 92.5019 361.453 91.6813C360.492 90.8606 359.755 89.5954 359.24 87.8857C358.725 86.176 358.468 83.7825 358.468 80.6965L358.159 33.7824C359.806 31.8675 361.402 30.4314 362.946 29.474C364.49 28.5165 366.017 28.0378 367.527 28.0378C369.792 28.0378 371.611 29.1149 372.992 31.2691C374.365 33.4234 375.051 36.1845 375.051 39.5355V80.705C375.051 83.7825 374.828 86.1846 374.382 87.8943C373.936 89.604 373.233 90.8691 372.272 91.6898C371.311 92.5105 369.973 93.0918 368.257 93.4337V93.6389L372.684 93.4337C375.772 93.2285 378.209 93.126 380.002 93.126C381.795 93.126 384.291 93.2285 387.732 93.4337L392.056 93.6389V93.4337C389.585 92.7498 387.792 91.5017 386.694 89.6895C385.595 87.8772 385.046 84.8852 385.046 80.705V36.7658C385.046 32.0471 383.88 28.6362 381.546 26.5504C379.212 24.4646 376.15 23.5926 372.375 23.9345C369.355 24.2081 366.67 25.2168 364.336 26.9607C362.002 28.7046 359.866 30.9101 357.944 33.5858L357.738 24.3449L356.4 24.1397C354.753 25.0971 352.419 26.2084 349.391 27.4736C346.371 28.7388 343.754 29.7133 341.558 30.3972V30.6024C343.686 30.3972 345.367 31.0298 346.603 32.5001C347.838 33.9705 348.456 36.3469 348.456 39.6381V80.705C348.456 83.6713 348.404 86.9539 347.134 89.698C346.208 91.6983 344.526 92.2113 342.485 92.4335C340.966 92.6045 339.104 92.5788 337.809 91.6385C336.453 90.6469 335.621 88.7662 335.158 87.2019C334.411 84.6544 334.334 81.9018 334.334 79.2689V24.9433L334.128 24.8407L330.834 25.4562L325.575 26.482C322.624 26.9607 320.118 27.4052 318.051 27.8156V28.1233C319.973 28.3969 321.362 28.8414 322.22 29.4569C323.078 30.0724 323.644 31.0469 323.919 32.3804C324.194 33.714 324.331 35.8169 324.331 38.6978V83.5602C322.203 85.9538 320.436 87.6293 319.029 88.5867C317.622 89.5441 316.129 90.0229 314.55 90.0229C313.178 90.0229 311.994 89.6296 310.999 88.8432C310.003 88.0567 309.214 86.7744 308.631 84.9963C308.047 83.2183 307.756 80.8589 307.756 77.9096V26.4563H292.013L291.953 26.7641C291.953 26.7641 291.918 26.8325 291.893 26.8752C292.605 27.0547 293.3 27.3881 293.9 27.7899C294.672 28.3114 295.462 28.8414 296.088 29.5338L296.105 29.5423Z" fill="#7D0A0D"/>
<path d="M399.854 87.4859L396.002 87.8706C396.869 95.171 392.553 100.95 387.38 105.634C382.919 109.695 377.522 112.73 371.851 114.79C354.856 120.834 336.059 119.97 318.566 116.482C302.857 113.174 288.015 106.823 272.521 102.3C271.062 101.899 269.569 101.488 268.068 101.069C272.486 89.0674 275.386 76.4584 279.247 63.2253C281.821 54.4118 285.698 41.9311 287.517 37.0242C289.327 32.1431 289.731 31.0061 291.893 26.8772C291.721 26.8344 291.541 26.7917 291.369 26.7661V26.4583H274.528L274.485 26.7746C276.21 27.5183 277.531 29.0827 278.44 31.4421C278.921 32.6902 279.453 34.2203 279.418 35.7847C279.376 37.8791 276.098 48.2997 274.563 54.3349C272.375 62.9432 270.273 71.2096 267.871 79.1939L264.851 87.939L258.691 45.9403C257.842 40.3752 258.056 35.9813 259.386 32.9295C260.741 29.8179 262.775 27.809 265.469 26.9456L265.511 26.4583C265.511 26.4583 244.312 26.7575 239.868 26.5096C239.593 25.6719 239.173 24.9623 238.607 24.381C237.509 23.2526 236.033 22.7226 234.18 22.791C231.778 22.9278 229.762 24.2785 228.149 26.843C226.536 29.4075 225.283 32.6645 224.391 36.5968C223.602 40.076 222.915 44.0767 222.349 48.5989L222.126 47.9406L222.109 47.9663L221.92 24.1246L220.994 23.7143C219.484 24.6717 217.133 25.783 213.933 27.0482C210.741 28.3133 208.005 29.3221 205.74 30.0743V30.3821C207.936 29.9717 209.652 30.5701 210.887 32.1772C212.123 33.7844 212.74 36.2976 212.74 39.7256L213.049 80.895C213.049 84.9983 212.552 87.9646 211.556 89.7769C211.471 89.9393 211.368 90.0846 211.265 90.2385C214.199 89.8795 217.253 89.6914 220.453 89.6914C221.903 89.6914 223.361 89.7342 224.82 89.8026C223.696 88.0074 223.104 85.0496 223.035 80.895L222.727 54.0956C222.589 50.1291 223.035 46.7353 224.065 43.9314C225.094 41.1275 226.347 38.9904 227.823 37.5115C229.298 36.0412 230.688 35.306 231.992 35.306C233.296 35.306 234.291 35.6308 234.978 36.2805C235.664 36.9302 235.973 37.8705 235.904 39.1015L236.007 39.2041C237.105 38.1099 238.083 36.5712 238.941 34.5879C239.799 32.6047 240.228 30.7924 240.228 29.1511C240.228 28.5954 240.185 28.0654 240.1 27.5782C241.507 28.5698 242.57 29.4845 243.291 30.3393C244.149 31.3651 244.938 32.9894 245.642 35.1949C246.328 37.3662 247.117 40.7514 247.984 45.2479L256.495 90.4009C257.009 93.145 259.412 94.7778 262.294 94.4187L262.612 94.376C262.612 94.376 262.577 94.47 262.517 94.6239C262.14 95.5984 260.784 99.0435 260.758 99.0435C239.568 93.2903 215.717 88.0416 195.745 97.0602C189.499 100.078 183.751 104.617 179.89 110.43C176.321 116.209 175.343 123.484 177.479 129.963C179.796 136.999 186.059 142.059 192.588 145.009C199.434 148.146 207.061 149.326 214.533 148.89C226.81 148.154 239.13 143.692 248.387 135.494C257.061 127.912 262.226 117.397 265.983 106.78C278.758 110.131 290.949 114.73 303.741 118.517C328.037 125.672 359.806 128.074 382.37 114.798C382.919 114.431 384.06 113.73 384.652 113.337L386.119 112.277L386.848 111.747L387.552 111.174L388.95 110.02L390.28 108.789L390.94 108.173C395.513 103.634 399.648 97.9407 399.914 91.2301C399.966 89.965 399.914 88.7084 399.786 87.4774L399.854 87.4859ZM243.463 129.989C234.678 137.768 222.649 141.735 210.964 141.752C197.701 141.769 179.539 133.896 184.188 118.004C184.892 115.713 186.033 113.559 187.655 111.798C190.674 108.182 194.509 105.318 198.748 103.215C216.978 94.8718 239.43 99.9838 258.742 104.925C255.302 114.277 251.03 123.415 243.471 129.989H243.463Z" fill="#7D0A0D"/>
<path d="M34.446 62.1497C35.1495 60.8845 35.9817 59.6877 36.9511 58.5422C37.9206 57.3967 38.9758 56.3453 40.1169 55.3878C38.3496 55.2254 36.5908 54.9946 34.8578 54.6783C33.1162 54.3706 31.4003 54.0628 29.7017 53.7636C28.003 53.4644 26.33 53.1994 24.6828 52.9857C23.0356 52.7635 21.4141 52.6523 19.8269 52.6523C18.0338 52.6523 16.5325 52.8148 15.3056 53.1311C14.0788 53.4559 13.075 53.9004 12.3029 54.4646C11.5308 55.0374 10.9731 55.7212 10.6299 56.5248C10.2868 57.3284 10.1152 58.2174 10.1152 59.2005C10.1152 60.1835 10.2696 61.0298 10.5699 61.7565C10.8701 62.4831 11.3077 63.0729 11.8653 63.5431C12.4316 64.0133 13.1008 64.3638 13.8729 64.5946C14.645 64.8254 15.503 64.9365 16.4553 64.9365C17.0987 64.9365 17.7679 64.8852 18.48 64.7826C19.1835 64.68 19.8784 64.5347 20.5733 64.3467C21.2682 64.1586 21.946 63.9278 22.6066 63.6713C23.2672 63.4149 23.8849 63.1242 24.4426 62.7994L25.0431 63.5175C23.7133 64.2783 22.2892 64.8681 20.762 65.287C19.2349 65.7059 17.7765 65.9196 16.3866 65.9196C15.2198 65.9196 14.1732 65.7657 13.2466 65.458C12.32 65.1502 11.5308 64.7057 10.8787 64.1244C10.2267 63.5431 9.7291 62.8336 9.38593 61.9873C9.04276 61.1495 8.87118 60.1921 8.87118 59.1321C8.87118 56.3111 10.0637 54.1398 12.4487 52.6438C14.8338 51.1478 18.2741 50.387 22.7782 50.387C24.5884 50.387 26.3643 50.4981 28.1059 50.7204C29.8475 50.9426 31.5805 51.182 33.3221 51.4555C35.0637 51.7291 36.8139 51.9856 38.5812 52.2249C40.3485 52.4643 42.1673 52.6181 44.0376 52.678C45.6677 51.7547 47.3321 51.0367 49.0479 50.5152C50.7552 49.9938 52.4539 49.7373 54.144 49.7373C55.0105 49.7373 55.5939 49.8142 55.9113 49.9767C56.2202 50.1391 56.3746 50.4383 56.3746 50.8743C56.3746 51.5325 56.0658 52.148 55.4395 52.7207C54.8132 53.2935 53.9553 53.7893 52.8571 54.2082C51.759 54.627 50.4635 54.9604 48.9535 55.1998C47.4436 55.4391 45.8135 55.5588 44.0634 55.5588H43.2226C42.9395 55.5588 42.6564 55.5503 42.3818 55.5246C42.0987 55.8067 41.8413 56.0888 41.6097 56.3624C41.378 56.6445 41.1636 56.9351 40.9577 57.2343C40.7775 57.4908 40.5973 57.7985 40.4172 58.149C40.237 58.4995 40.0225 58.9526 39.7823 59.4997C39.5421 60.0553 39.259 60.7392 38.9415 61.5599C38.6155 62.3805 38.2294 63.4063 37.7833 64.6373C37.3372 65.8683 36.7967 67.3301 36.1704 69.0227C35.5441 70.7153 34.8235 72.7071 33.9999 74.9895C32.387 79.3749 30.7569 83.1448 29.1011 86.3077C27.4453 89.4706 25.678 92.0437 23.8077 94.0612C21.9374 96.0786 19.9299 97.5575 17.7765 98.5064C15.6231 99.4553 13.2552 99.934 10.6557 99.934C7.24112 99.934 4.60728 99.1817 2.77131 97.6772C0.93535 96.1726 0.00878906 94.0184 0.00878906 91.2145C0.00878906 90.1887 0.128899 89.2313 0.369119 88.3251C0.609338 87.419 0.93535 86.6325 1.33 85.9487C1.73322 85.2648 2.1965 84.7262 2.72842 84.3245C3.26033 83.9227 3.82657 83.7261 4.43569 83.7261C4.95903 83.7261 5.36225 83.8799 5.65395 84.1877C5.94565 84.4954 6.09149 84.9399 6.09149 85.5212C6.09149 85.8033 6.0486 86.0427 5.95422 86.2393C5.85985 86.4359 5.70543 86.624 5.49094 86.7779C5.26788 86.9403 4.96761 87.1113 4.59012 87.2908C4.20405 87.4703 3.72361 87.684 3.14022 87.9234C2.55683 88.1798 2.12787 88.5474 1.84475 89.0176C1.56164 89.4877 1.42437 90.2314 1.42437 91.2573C1.42437 93.7192 2.17077 95.5828 3.65498 96.8309C5.13919 98.0789 7.39554 98.7115 10.4154 98.7115C11.6423 98.7115 12.7662 98.609 13.7957 98.4123C14.8252 98.2157 15.7775 97.8481 16.6783 97.3181C17.5706 96.7881 18.4285 96.0615 19.2435 95.1383C20.0585 94.215 20.8822 93.0439 21.7143 91.6249C22.5465 90.2058 23.413 88.4961 24.3053 86.5129C25.1975 84.5296 26.1841 82.1959 27.248 79.5117C28.1316 77.2463 28.9038 75.2973 29.5558 73.6474C30.2078 72.0061 30.7741 70.5956 31.2459 69.4245C31.7178 68.2533 32.1124 67.2788 32.4384 66.4923C32.7559 65.7144 33.039 65.0476 33.2706 64.5091C33.5023 63.9705 33.7082 63.5175 33.8883 63.1584C34.0685 62.7994 34.2572 62.4489 34.4631 62.107L34.446 62.1497ZM53.9896 50.5751C52.7198 50.5751 51.4329 50.7631 50.1289 51.1478C48.8248 51.5325 47.5637 52.0368 46.3626 52.678C47.5122 52.6352 48.6189 52.5669 49.6914 52.4557C50.7638 52.3446 51.7246 52.2078 52.574 52.0539C53.4148 51.8915 54.0925 51.7206 54.5987 51.5239C55.1049 51.3359 55.3537 51.1393 55.3537 50.9341C55.3537 50.6947 54.899 50.5751 53.9981 50.5751H53.9896Z" fill="#7D0A0D"/>
<path d="M56.2544 47.3357H60.75L50.2232 76.0928C51.5873 73.8103 52.8914 71.8185 54.1268 70.1259C55.3622 68.4333 56.5976 67.0314 57.8244 65.9201C59.0513 64.8088 60.3038 63.9796 61.5907 63.4239C62.8776 62.8768 64.2589 62.5947 65.7259 62.5947C66.9528 62.5947 68.0338 62.7913 68.9689 63.1931C69.9041 63.5949 70.6848 64.1591 71.3196 64.8943C71.9545 65.6294 72.4264 66.5014 72.7524 67.5272C73.0698 68.553 73.2328 69.69 73.2328 70.9551C73.2328 71.8527 73.0698 72.9213 72.7352 74.1437C72.4006 75.3662 71.9888 76.6655 71.4826 78.0504C70.9765 79.4352 70.436 80.8543 69.8526 82.299C69.2692 83.7522 68.7287 85.1627 68.2225 86.5219C67.7163 87.8811 67.3045 89.1549 66.9699 90.326C66.6353 91.4972 66.4723 92.4973 66.4723 93.318C66.4723 94.7028 66.8413 95.8056 67.5705 96.6262C68.3083 97.4469 69.4494 97.8572 70.9936 97.8572C72.3406 97.8572 73.6446 97.5666 74.8972 96.9853C76.1498 96.404 77.4023 95.5235 78.6378 94.3523C79.8732 93.1812 81.1172 91.7109 82.3612 89.9328C83.6051 88.1632 84.9006 86.0945 86.2561 83.7266L87.8262 80.9654L88.6412 81.5382L87.0712 84.2993C85.6041 86.881 84.1971 89.1207 82.8673 91.0184C81.529 92.9076 80.1906 94.472 78.8522 95.703C77.5139 96.934 76.1498 97.8487 74.7685 98.4556C73.3872 99.0625 71.903 99.3532 70.333 99.3532C69.1062 99.3532 68.0252 99.1651 67.09 98.7975C66.1549 98.43 65.3742 97.9 64.7393 97.2161C64.1045 96.5322 63.624 95.7115 63.3066 94.7541C62.9806 93.7967 62.8262 92.7196 62.8262 91.5399C62.8262 90.6765 62.9892 89.6421 63.3237 88.4282C63.6583 87.2144 64.0701 85.9064 64.5763 84.5045C65.0825 83.1025 65.623 81.6664 66.2064 80.1961C66.7898 78.7257 67.3303 77.3067 67.8364 75.9475C68.3426 74.5882 68.7544 73.3145 69.089 72.1434C69.4236 70.9722 69.5866 69.9977 69.5866 69.2113C69.5866 67.6469 69.2177 66.4074 68.4885 65.4841C67.7507 64.5609 66.6096 64.0993 65.0653 64.0993C63.7012 64.0993 62.38 64.4241 61.1103 65.0567C59.8406 65.6978 58.5451 66.7151 57.2067 68.1085C55.8684 69.5019 54.4699 71.2971 53.0115 73.5026C51.553 75.7081 49.9658 78.3838 48.2585 81.5296L41.927 98.7805H37.4658L56.2544 47.3271V47.3357Z" fill="#7D0A0D"/>
<path d="M94.4406 99.3532C90.803 99.3532 87.9975 98.4043 86.0243 96.5151C84.0511 94.6259 83.0645 91.8049 83.0645 88.0521C83.0645 87.0263 83.1417 85.9492 83.2875 84.8037C83.4334 83.6582 83.6736 82.487 83.9996 81.2902C84.7203 78.606 85.7412 76.1184 87.0624 73.836C88.375 71.5535 89.8936 69.5788 91.6008 67.9119C93.3081 66.2449 95.1526 64.9456 97.1173 64.0052C99.0905 63.0649 101.072 62.5947 103.063 62.5947C105.053 62.5947 106.657 63.0649 107.816 64.0052C108.974 64.9456 109.549 66.2706 109.549 67.9717C109.549 68.9292 109.36 69.878 108.974 70.7927C108.588 71.716 108.039 72.5879 107.318 73.4086C106.597 74.2292 105.722 74.9986 104.71 75.7081C103.698 76.4176 102.557 77.0331 101.287 77.5546C99.7168 78.2128 97.9924 78.7086 96.0964 79.042C94.2089 79.3754 92.0555 79.5378 89.6448 79.5378C89.0614 81.162 88.6067 82.8461 88.2721 84.5985C87.9375 86.351 87.7745 88.1376 87.7745 89.967C87.7745 92.7538 88.3664 94.7627 89.5418 95.9936C90.7172 97.2246 92.5703 97.8401 95.1098 97.8401C97.2203 97.8401 99.2278 97.4383 101.141 96.6262C103.054 95.8141 104.821 94.7456 106.452 93.4291C108.082 92.1126 109.566 90.5995 110.913 88.9069C112.26 87.2143 113.435 85.4876 114.439 83.7266L116.009 80.9654L116.824 81.5382L115.254 84.2993C114.01 86.4792 112.646 88.4966 111.17 90.3431C109.695 92.1896 108.082 93.771 106.349 95.1046C104.607 96.4382 102.745 97.4811 100.772 98.2333C98.7903 98.9856 96.6883 99.3617 94.4491 99.3617L94.4406 99.3532ZM103.912 63.8001C102.642 63.8001 101.355 64.1676 100.034 64.9114C98.713 65.6551 97.4433 66.6809 96.2165 67.9888C94.9896 69.3053 93.84 70.8526 92.7762 72.6306C91.7124 74.4173 90.7858 76.3578 90.0051 78.4607C92.2185 78.418 94.106 78.2213 95.676 77.8709C97.246 77.5204 98.6101 77.0758 99.7769 76.5373C100.703 76.1184 101.604 75.5713 102.479 74.896C103.354 74.2207 104.127 73.4598 104.804 72.5964C105.482 71.733 106.023 70.8013 106.434 69.8011C106.846 68.8009 107.052 67.758 107.052 66.6723C107.052 66.1338 106.975 65.6807 106.812 65.3217C106.649 64.9627 106.426 64.6635 106.151 64.4327C105.868 64.2018 105.534 64.0394 105.156 63.9368C104.77 63.8343 104.358 63.783 103.921 63.783L103.912 63.8001Z" fill="#7D0A0D"/>
</g>
<defs>
<clipPath id="clip0_324_144">
<rect width="400" height="149" fill="white"/>
</clipPath>
</defs>
</svg>
