<svg width="688" height="430" viewBox="0 0 688 430" fill="none" xmlns="http://www.w3.org/2000/svg">
<g clip-path="url(#clip0_330_160)">
<path d="M83.5475 185.738C77.7799 178.243 70.7644 170.36 62.5012 162.075C53.7249 153.289 46.6956 145.573 41.4548 138.939C36.2001 132.305 31.9437 124.894 28.6717 116.706C25.3996 108.517 23.7636 99.51 23.7636 89.6839C23.7636 81.5788 25.7878 75.1253 29.8363 70.2955C33.8847 65.4658 40.1238 63.0509 48.5673 63.0509C55.971 63.0509 62.5982 66.2846 68.449 72.7521C74.2999 79.2195 80.1507 88.2267 86.0154 99.7736C90.66 108.739 94.8748 117.608 98.6737 126.407L99.4501 126.143C97.3843 115.97 95.6235 103.687 94.1539 89.2953C92.6842 74.9032 92.0465 63.3979 92.2129 54.7793H91.4364C91.4364 58.4016 90.5768 61.3716 88.8576 63.7032C87.1384 66.0348 84.8924 67.1867 82.1472 67.1867C79.402 67.1867 74.8267 66.3263 68.4629 64.6053C65.0106 63.5644 61.6554 62.7595 58.3834 62.1488C55.1114 61.552 51.9225 61.2467 48.8307 61.2467C41.2468 61.2467 33.9402 63.0093 26.8831 66.5483C19.8261 70.0874 14.003 75.4306 9.44156 82.5781C4.88012 89.7394 2.59248 98.3997 2.59248 108.559C2.59248 118.718 4.1869 127.267 7.37574 135.192C10.5646 143.116 14.7378 150.541 19.9093 157.425C25.0808 164.323 32.4706 172.775 42.1203 182.768C54.0022 195.522 63.5133 208.665 70.6535 222.197C77.7937 235.728 81.3708 248.177 81.3708 259.558C81.3708 268.87 78.8752 276.49 73.8839 282.443C68.8927 288.384 61.489 291.367 51.6729 291.367C43.4097 291.367 36.1724 287.62 29.9749 280.126C23.7775 272.631 18.8694 262.889 15.2508 250.911C11.6322 238.934 9.64953 226.138 9.30291 212.523H8.5265C8.17988 227.179 7.1955 241.835 5.55949 256.477C3.92347 271.132 2.07949 283.359 0.0136719 293.186H0.790086C3.7155 288.189 8.02738 285.691 13.698 285.691C16.8036 285.691 21.7949 286.732 28.6717 288.8C33.1499 290.188 37.0597 291.256 40.4288 292.034C43.784 292.811 47.3611 293.199 51.1461 293.199C62.3348 293.199 71.8043 290.535 79.5545 285.191C87.3048 279.848 93.0725 272.784 96.8575 263.985C100.642 255.2 102.542 245.457 102.542 234.771C102.542 225.985 100.823 217.492 97.3705 209.303C93.9182 201.115 89.3152 193.274 83.5475 185.779V185.738Z" fill="#7D0A0D"/>
<path d="M133.28 285.274C140.421 290.534 148.906 293.157 158.722 293.157C165.432 293.157 171.463 291.742 176.801 288.897C182.139 286.051 186.742 281.749 190.624 275.976C194.492 270.202 197.556 262.916 199.788 254.131L198.749 253.617C195.643 264.137 191.345 271.979 185.827 277.141C180.309 282.318 174.028 284.9 166.971 284.9C160.427 284.9 154.743 281.194 149.918 273.783C145.093 266.372 141.391 256.546 138.812 244.305C136.233 232.064 134.681 218.962 134.168 205.001C134.168 202.766 134.514 201.253 135.207 200.476C135.901 199.699 137.703 199.227 140.629 199.061H155.353C162.063 198.894 167.11 198.464 170.465 197.77C173.82 197.09 176.746 195.438 179.241 192.857C181.737 190.275 184.274 186.056 186.867 180.186C189.792 175.356 192.038 170.096 193.577 164.42C195.13 158.729 195.906 153.136 195.906 147.613C195.906 137.967 193.799 130.028 189.584 123.825C185.369 117.621 179.643 114.512 172.406 114.512C159.318 114.512 148.129 119.508 138.826 129.501C129.523 139.494 122.549 152.553 117.905 168.666C113.26 184.779 110.931 201.808 110.931 219.726C110.931 236.449 112.872 250.231 116.74 261.098C120.608 271.951 126.126 280.014 133.266 285.274H133.28ZM136.247 161.172C137.967 149.361 140.726 139.452 144.511 131.444C148.296 123.422 153.037 119.425 158.722 119.425C163.2 119.425 166.763 122.145 169.439 127.572C172.101 132.998 173.959 139.771 174.985 147.862C176.025 155.968 176.538 164.406 176.538 173.205C176.538 181.129 175.928 186.653 174.735 189.748C173.529 192.857 171.2 194.883 167.761 195.827C164.309 196.771 157.862 197.242 148.393 197.242L135.221 197.506C134.362 197.506 133.932 197.076 133.932 196.215C133.766 184.668 134.528 172.997 136.261 161.186L136.247 161.172Z" fill="#7D0A0D"/>
<path d="M427.555 129.182C429.343 131.167 430.175 133.526 430.702 136.094C431.395 139.452 431.742 144.754 431.742 151.999V257.74C431.742 269.467 434.321 278.294 439.492 284.248C444.663 290.202 451.721 293.172 460.677 293.172C467.041 293.172 473.072 291.062 478.756 286.843C484.441 282.624 490.985 276.032 498.389 267.066C498.389 267.066 499.941 290.34 499.983 290.34V290.604H601.194V290.091C597.062 289.23 593.79 287.759 591.378 285.691C588.966 283.623 587.122 280.431 585.832 276.129C584.543 271.826 583.891 265.789 583.891 258.031L583.115 139.869C587.246 135.039 591.253 131.431 595.121 129.016C598.99 126.601 602.83 125.393 606.615 125.393C612.3 125.393 616.861 128.114 620.299 133.54C623.738 138.967 625.471 145.906 625.471 154.358V258.031C625.471 265.789 624.916 271.826 623.793 276.129C622.67 280.445 620.91 283.623 618.497 285.691C616.085 287.759 612.729 289.23 608.431 290.091V290.604L619.537 290.091C627.287 289.577 633.401 289.313 637.88 289.313C642.358 289.313 648.639 289.577 657.248 290.091L668.091 290.604V290.091C661.893 288.37 657.415 285.219 654.656 280.653C651.897 276.087 650.524 268.551 650.524 258.031V147.377C650.524 135.483 647.599 126.906 641.748 121.646C635.897 116.386 628.23 114.193 618.761 115.054C611.177 115.748 604.466 118.288 598.615 122.687C592.764 127.087 587.413 132.638 582.602 139.369L582.089 116.095L578.734 115.581C574.602 117.996 568.751 120.8 561.167 123.978C553.583 127.17 547.053 129.626 541.535 131.347V131.861C546.873 131.347 551.088 132.943 554.193 136.649C557.299 140.355 558.838 146.35 558.838 154.622V258.045C558.838 265.512 558.713 273.783 555.524 280.695C553.209 285.719 548.98 287.023 543.864 287.579C540.065 287.995 535.379 287.939 532.149 285.566C528.738 283.054 526.658 278.335 525.508 274.408C523.636 267.996 523.442 261.07 523.442 254.423V117.649L522.929 117.386L514.666 118.94L501.494 121.521C494.091 122.729 487.81 123.853 482.638 124.88V125.657C487.463 126.351 490.943 127.461 493.092 129.016C495.241 130.57 496.669 133.027 497.349 136.385C498.042 139.744 498.389 145.046 498.389 152.29V265.276C493.051 271.313 488.614 275.532 485.092 277.947C481.557 280.362 477.814 281.569 473.862 281.569C470.41 281.569 467.443 280.584 464.947 278.599C462.452 276.614 460.469 273.395 459.013 268.898C457.544 264.415 456.823 258.475 456.823 251.064L456.795 121.466H417.364L417.226 122.243C417.17 122.34 417.129 122.423 417.087 122.521C418.875 122.979 420.609 123.811 422.12 124.838C424.061 126.143 426.03 127.489 427.596 129.238L427.555 129.182Z" fill="#7D0A0D"/>
<path d="M241.507 81.7726C244.474 84.2152 248.73 85.4365 254.248 85.4365C258.435 85.4365 262.276 84.6593 265.756 83.1188C269.236 81.5783 272.48 79.1634 275.502 75.9019C278.525 72.6405 281.381 68.4353 284.057 63.3141C286.733 58.1929 289.381 52.0724 291.973 44.9388C293.304 41.2333 294.469 37.9995 295.481 35.2516C296.493 32.5036 297.353 30.1304 298.088 28.1319C298.823 26.1334 299.446 24.4679 299.959 23.1356C300.486 21.8032 300.93 20.693 301.318 19.7909C301.706 18.9026 302.053 18.1671 302.344 17.598C302.635 17.029 302.926 16.5294 303.218 16.113C303.536 15.6273 303.897 15.1554 304.271 14.6974C304.646 14.2394 305.062 13.7814 305.519 13.3373C305.977 13.3651 306.434 13.3928 306.878 13.3928H308.237C311.065 13.3928 313.699 13.1985 316.139 12.8099C318.58 12.4213 320.687 11.8801 322.448 11.2C323.072 10.9641 323.626 10.7004 324.153 10.4228L297.575 83.549H304.784L315.016 55.5421C317.775 50.4348 320.34 46.0908 322.697 42.5101C325.054 38.9294 327.314 36.0149 329.477 33.7527C331.64 31.4905 333.747 29.8389 335.785 28.7981C337.837 27.7572 339.959 27.2437 342.177 27.2437C344.673 27.2437 346.517 27.9931 347.709 29.492C348.901 30.9909 349.484 33.0033 349.484 35.543C349.484 36.806 349.22 38.402 348.679 40.3034C348.139 42.2048 347.473 44.2588 346.655 46.4794C345.837 48.6861 344.964 50.9899 344.021 53.377C343.078 55.7641 342.205 58.0957 341.387 60.3718C340.569 62.6479 339.903 64.7713 339.362 66.7421C338.822 68.7128 338.558 70.3922 338.558 71.7939C338.558 73.7091 338.822 75.4578 339.335 77.0122C339.848 78.5666 340.624 79.9129 341.65 81.0093C342.676 82.1196 343.938 82.9661 345.449 83.5768C346.96 84.1875 348.707 84.4789 350.69 84.4789C353.227 84.4789 355.612 83.9932 357.858 83.0217C360.104 82.0502 362.294 80.5513 364.457 78.5528C366.62 76.5542 368.783 74.0145 370.946 70.9473C371.14 70.6697 371.334 70.3644 371.528 70.0868C372.097 74.2365 373.594 77.5119 376.048 79.8712C379.237 82.9384 383.771 84.4789 389.649 84.4789C393.254 84.4789 396.665 83.8683 399.867 82.6469C403.07 81.4256 406.079 79.7324 408.879 77.5674C411.694 75.4023 414.286 72.8209 416.671 69.837C419.056 66.8392 421.26 63.5778 423.271 60.0249L425.808 55.5421L424.491 54.6122L421.954 59.095C420.331 61.954 418.432 64.7574 416.255 67.5054C414.078 70.2534 411.68 72.696 409.046 74.8472C406.411 76.9984 403.555 78.7193 400.463 80.0378C397.372 81.3562 394.127 82.0085 390.717 82.0085C386.627 82.0085 383.618 81.0093 381.719 79.0107C379.819 77.0122 378.863 73.7508 378.863 69.2264C378.863 66.2702 379.126 63.3696 379.667 60.5106C380.207 57.6655 380.942 54.9175 381.885 52.2945C385.781 52.2945 389.261 52.0308 392.311 51.4895C395.361 50.9483 398.162 50.1433 400.699 49.0747C402.751 48.2281 404.595 47.2288 406.231 46.0769C407.867 44.925 409.281 43.6759 410.446 42.3435C411.611 41.0112 412.512 39.5956 413.122 38.0967C413.732 36.5978 414.051 35.0712 414.051 33.5168C414.051 30.7549 413.122 28.6038 411.25 27.0771C409.378 25.5505 406.827 24.7871 403.569 24.7871C400.311 24.7871 397.15 25.5505 393.961 27.0771C390.772 28.6038 387.805 30.7133 385.046 33.4196C382.287 36.1259 379.833 39.318 377.712 43.0375C375.577 46.7431 373.941 50.7817 372.762 55.1396C372.249 57.0965 371.861 58.9978 371.611 60.8437C371.362 62.6895 371.251 64.4521 371.251 66.1176C371.251 66.5755 371.279 67.0058 371.292 67.436C370.904 68.0189 370.502 68.6157 370.128 69.157C368.118 72.0298 366.107 74.4308 364.111 76.3322C362.114 78.2336 360.09 79.663 358.066 80.6068C356.042 81.5505 353.934 82.0224 351.757 82.0224C349.248 82.0224 347.418 81.3562 346.225 80.0239C345.033 78.6915 344.451 76.9012 344.451 74.6529C344.451 73.3205 344.714 71.6967 345.255 69.7954C345.796 67.894 346.461 65.84 347.279 63.6194C348.083 61.4127 348.971 59.1227 349.913 56.7634C350.856 54.404 351.73 52.1002 352.548 49.8657C353.352 47.6174 354.031 45.5079 354.572 43.5232C355.113 41.5386 355.376 39.8176 355.376 38.3465C355.376 36.2925 355.113 34.4466 354.6 32.7812C354.073 31.1158 353.31 29.7002 352.284 28.5066C351.258 27.313 349.997 26.3971 348.485 25.7448C346.974 25.0925 345.227 24.7733 343.245 24.7733C340.874 24.7733 338.642 25.2174 336.562 26.1195C334.482 27.0216 332.444 28.3678 330.475 30.172C328.493 31.9762 326.496 34.2523 324.5 37.0003C322.503 39.7482 320.396 42.982 318.191 46.6875L335.231 0H327.966L326.496 4.03867C325.983 3.9554 325.345 3.89988 324.541 3.89988C321.81 3.89988 319.065 4.31624 316.306 5.16283C313.547 6.00942 310.843 7.17523 308.209 8.67411C305.186 8.57696 302.247 8.32715 299.391 7.93855C296.535 7.54995 293.693 7.13359 290.892 6.68948C288.091 6.24536 285.277 5.85676 282.462 5.49592C279.648 5.13507 276.778 4.95465 273.853 4.95465C266.574 4.95465 261.014 6.17597 257.16 8.6186C253.305 11.0612 251.378 14.5725 251.378 19.1524C251.378 20.8734 251.655 22.4278 252.21 23.7879C252.765 25.148 253.569 26.3138 254.622 27.2575C255.676 28.2013 256.952 28.923 258.449 29.4226C259.946 29.9222 261.638 30.172 263.523 30.172C265.77 30.172 268.126 29.8251 270.594 29.145C273.062 28.465 275.378 27.5073 277.513 26.2722L276.542 25.1063C275.627 25.6337 274.643 26.1056 273.575 26.522C272.508 26.9383 271.412 27.313 270.289 27.6184C269.166 27.9237 268.043 28.1596 266.906 28.3262C265.769 28.4927 264.674 28.576 263.634 28.576C262.109 28.576 260.723 28.3956 259.461 28.0209C258.213 27.6461 257.132 27.0771 256.217 26.3138C255.302 25.5505 254.609 24.579 254.123 23.4132C253.638 22.2474 253.388 20.8595 253.388 19.2635C253.388 17.6674 253.666 16.2241 254.22 14.9195C254.775 13.6149 255.676 12.5046 256.924 11.5747C258.172 10.6449 259.794 9.92318 261.777 9.40968C263.759 8.89617 266.199 8.63248 269.083 8.63248C271.648 8.63248 274.268 8.8129 276.93 9.17374C279.592 9.53458 282.296 9.95094 285.041 10.4367C287.786 10.9224 290.559 11.4221 293.374 11.9217C296.188 12.4213 299.017 12.8099 301.873 13.0736C300.015 14.628 298.31 16.349 296.757 18.1948C295.204 20.0407 293.845 21.9975 292.708 24.0516C292.389 24.6067 292.071 25.1757 291.779 25.7586C291.488 26.3415 291.155 27.0771 290.781 27.9515C290.407 28.8258 289.963 29.9083 289.436 31.1713C288.909 32.4342 288.272 34.0303 287.509 35.9316C286.747 37.833 285.831 40.123 284.778 42.7877C283.724 45.4523 282.476 48.6305 281.048 52.3084C279.329 56.6662 277.748 60.4551 276.293 63.6749C274.837 66.8948 273.45 69.6566 272.106 71.9743C270.761 74.2782 269.43 76.1934 268.113 77.6784C266.795 79.1773 265.409 80.357 263.967 81.2174C262.525 82.0779 260.972 82.6747 259.309 82.9939C257.645 83.3131 255.829 83.4797 253.846 83.4797C248.966 83.4797 245.333 82.4665 242.921 80.4264C240.522 78.4001 239.316 75.3746 239.316 71.3775C239.316 69.7121 239.538 68.5047 239.995 67.7413C240.453 66.978 241.146 66.3812 242.089 65.9649C243.032 65.5763 243.808 65.2293 244.432 64.9379C245.056 64.6464 245.541 64.3689 245.888 64.1052C246.248 63.8415 246.498 63.55 246.636 63.2308C246.789 62.9116 246.858 62.5091 246.858 62.065C246.858 61.1213 246.623 60.3996 246.151 59.8999C245.68 59.4003 245.028 59.1505 244.182 59.1505C243.212 59.1505 242.283 59.4697 241.423 60.122C240.564 60.7743 239.801 61.6487 239.163 62.7589C238.512 63.8692 237.999 65.146 237.611 66.6172C237.222 68.0883 237.028 69.6427 237.028 71.3081C237.028 75.8603 238.512 79.3577 241.493 81.8003L241.507 81.7726ZM387.001 41.0806C388.72 38.18 390.578 35.6679 392.561 33.5445C394.543 31.4211 396.595 29.7418 398.73 28.5482C400.852 27.3408 402.945 26.744 404.997 26.744C405.704 26.744 406.384 26.8273 406.994 26.9938C407.604 27.1604 408.144 27.4241 408.602 27.7988C409.059 28.1735 409.406 28.6593 409.67 29.2422C409.933 29.8251 410.058 30.5606 410.058 31.435C410.058 33.1976 409.725 34.8769 409.06 36.5145C408.394 38.1383 407.521 39.6511 406.425 41.0528C405.33 42.4546 404.082 43.6898 402.668 44.7862C401.254 45.8826 399.798 46.7569 398.301 47.4509C396.415 48.3252 394.211 49.0469 391.673 49.6159C389.136 50.1849 386.086 50.5041 382.509 50.5735C383.771 47.1594 385.268 44.009 386.987 41.1084L387.001 41.0806ZM318.067 6.18985C320.174 5.57919 322.254 5.25998 324.306 5.25998C325.068 5.25998 325.623 5.3155 325.997 5.42652L325.54 6.68948C325.456 6.73111 325.387 6.75887 325.29 6.8005C324.472 7.10583 323.391 7.39728 322.018 7.66098C320.659 7.92467 319.106 8.14673 317.359 8.31327C315.626 8.49369 313.824 8.6186 311.98 8.67411C313.935 7.63322 315.959 6.8005 318.067 6.18985Z" fill="#7D0A0D"/>
<path d="M687.625 275.101L677.961 276.059C680.124 294.434 669.324 308.993 656.361 320.79C645.172 331.018 631.64 338.665 617.429 343.842C574.823 359.067 527.698 356.888 483.858 348.103C444.469 339.775 407.284 323.76 368.422 312.393C364.762 311.394 361.032 310.353 357.261 309.298C368.339 279.084 375.604 247.316 385.295 214.008C391.756 191.816 401.461 160.395 406.036 148.029C410.584 135.733 411.596 132.874 417.017 122.478C416.587 122.367 416.144 122.256 415.7 122.187V121.41H373.496L373.399 122.215C377.725 124.075 381.039 128.03 383.312 133.97C384.519 137.12 385.85 140.965 385.766 144.906C385.655 150.18 377.448 176.425 373.593 191.635C368.117 213.3 362.848 234.132 356.817 254.228L349.247 276.239L333.802 170.471C331.667 156.453 332.208 145.392 335.549 137.703C338.946 129.876 344.048 124.81 350.8 122.631L350.911 121.41C350.911 121.41 297.768 122.159 286.635 121.549C285.942 119.453 284.902 117.663 283.474 116.178C280.715 113.333 277.013 112 272.368 112.167C266.337 112.514 261.304 115.914 257.256 122.381C253.208 128.849 250.06 137.037 247.828 146.946C245.845 155.704 244.14 165.794 242.698 177.174L242.144 175.509L242.102 175.578L241.631 115.525L239.301 114.484C235.516 116.899 229.61 119.703 221.61 122.881C213.61 126.073 206.761 128.613 201.077 130.514V131.291C206.581 130.25 210.893 131.763 213.985 135.816C217.09 139.868 218.629 146.197 218.629 154.816L219.406 258.489C219.406 268.828 218.158 276.281 215.662 280.847C215.441 281.249 215.191 281.624 214.941 281.999C222.29 281.083 229.957 280.625 237.984 280.625C241.617 280.625 245.277 280.736 248.937 280.916C246.137 276.406 244.639 268.939 244.473 258.489L243.696 191.011C243.35 181.018 244.473 172.483 247.052 165.419C249.631 158.355 252.778 152.97 256.48 149.264C260.181 145.559 263.661 143.699 266.933 143.699C270.205 143.699 272.701 144.518 274.42 146.155C276.139 147.793 276.916 150.166 276.75 153.261L277.013 153.525C279.772 150.763 282.212 146.891 284.375 141.895C286.524 136.898 287.605 132.332 287.605 128.196C287.605 126.781 287.495 125.476 287.287 124.241C290.808 126.725 293.484 129.043 295.3 131.208C297.449 133.79 299.418 137.884 301.179 143.449C302.898 148.903 304.881 157.439 307.057 168.764L328.395 282.471C329.698 289.382 335.715 293.504 342.939 292.602L343.729 292.505C343.729 292.505 343.632 292.741 343.48 293.143C342.523 295.586 339.14 304.288 339.071 304.26C285.956 289.771 226.172 276.558 176.107 299.264C160.44 306.869 146.035 318.291 136.357 332.933C127.415 347.478 124.961 365.812 130.312 382.119C136.122 399.842 151.83 412.582 168.176 420.021C185.327 427.932 204.446 430.888 223.205 429.792C253.984 427.932 284.846 416.704 308.07 396.053C329.809 376.956 342.745 350.476 352.186 323.746C384.2 332.184 414.771 343.772 446.826 353.307C507.733 371.321 587.385 377.372 643.938 343.939C645.324 343.023 648.18 341.247 649.664 340.247L653.352 337.569L655.182 336.222L656.943 334.779L660.451 331.879L663.792 328.77L665.456 327.215C676.922 315.793 687.292 301.443 687.944 284.553C688.083 281.36 687.944 278.21 687.625 275.101ZM295.578 382.133C273.547 401.716 243.405 411.708 214.11 411.75C180.862 411.791 135.345 391.973 146.977 351.947C148.738 346.187 151.608 340.761 155.671 336.306C163.241 327.201 172.849 319.985 183.483 314.697C229.18 293.685 285.47 306.55 333.871 318.999C325.234 342.551 314.53 365.562 295.578 382.119V382.133Z" fill="#7D0A0D"/>
</g>
<defs>
<clipPath id="clip0_330_160">
<rect width="688" height="430" fill="white"/>
</clipPath>
</defs>
</svg>
