<svg width="64" height="125" viewBox="0 0 64 125" fill="none" xmlns="http://www.w3.org/2000/svg">
<g clip-path="url(#clip0_324_138)">
<path d="M64 61.5134C63.6506 44.1571 60.1431 29.1297 53.5649 16.8336C49.2358 8.96004 44.3499 3.90257 38.6042 1.36289C36.456 0.45977 34.226 0 31.9686 0C28.6058 0 25.2184 1.04269 22.1722 3.01861C17.7394 5.90586 13.8825 10.4105 10.3696 16.809C3.84595 29.1598 0.161044 45.3804 0 62.5123C0.161044 79.6196 3.84595 95.8429 10.3832 108.21C13.8853 114.592 17.7449 119.097 22.1777 121.984C25.2211 123.957 28.6058 125 31.9713 125C34.226 125 36.4587 124.54 38.626 123.629C44.3499 121.1 49.2385 116.04 53.5731 108.153C60.1431 95.8703 63.6506 80.8429 64 63.4674C64 63.2458 64 63.0241 64 62.7997V62.1921C64 61.9704 64 61.746 64 61.5079V61.5134ZM59.2724 62.775C59.2779 63.0131 59.286 63.2485 59.2888 63.4729C59.4061 75.9524 57.8585 99.127 46.1814 114.119C43.0561 117.978 39.6523 120.501 36.0766 121.612C34.7637 122.009 33.4262 122.209 32.0969 122.209C29.2418 122.209 26.4412 121.308 23.7799 119.54C18.0014 115.629 13.424 108.76 9.79093 98.5605C6.06508 87.5233 4.37548 75.4023 4.76308 62.5342V62.4959V62.4576C4.37276 49.5895 6.06508 37.4685 9.78274 26.4505C13.424 16.2315 18.0014 9.36234 23.7717 5.45703C26.4412 3.68363 29.2418 2.78325 32.0969 2.78325C33.4262 2.78325 34.7637 2.98303 36.0657 3.37712C39.6523 4.49097 43.0561 7.01423 46.1651 10.8539C57.8585 25.8675 59.4061 49.0421 59.2888 61.5079C59.2833 61.7433 59.2779 61.9814 59.2724 62.2168L59.2642 62.4932L59.2724 62.7696V62.775Z" fill="#7D0A0D"/>
<path d="M41.0494 66.7597C39.4335 64.6579 37.4709 62.4493 35.159 60.1286C32.7024 57.6655 30.7371 55.5035 29.2686 53.6425C27.7974 51.7843 26.6045 49.7044 25.6901 47.411C24.773 45.1176 24.3172 42.5916 24.3172 39.8385C24.3172 37.5697 24.8822 35.7553 26.015 34.4033C27.1477 33.0514 28.8946 32.3754 31.2557 32.3754C33.3275 32.3754 35.1836 33.2813 36.8213 35.093C38.459 36.9047 40.0968 39.4307 41.7372 42.6655C43.0392 45.1778 44.2184 47.6655 45.2775 50.1286L45.4931 50.0547C44.9144 47.2058 44.4204 43.763 44.011 39.729C43.6015 35.6951 43.4214 32.4712 43.4678 30.0547H43.2521C43.2521 31.07 43.0092 31.902 42.5288 32.5561C42.0457 33.2074 41.4206 33.5331 40.6509 33.5331C39.8811 33.5331 38.601 33.2922 36.8213 32.8078C35.8578 32.5177 34.9161 32.2906 34.0017 32.1182C33.0873 31.9485 32.1947 31.8637 31.3267 31.8637C29.2058 31.8637 27.1586 32.359 25.1824 33.3497C23.2062 34.3404 21.5794 35.8374 20.3047 37.8434C19.0273 39.8494 18.3886 42.2769 18.3886 45.1258C18.3886 47.9748 18.8335 50.3694 19.7261 52.5889C20.6159 54.8111 21.7869 56.8883 23.2308 58.8204C24.6775 60.7526 26.7465 63.1198 29.446 65.9222C32.7706 69.4964 35.4319 73.18 37.4327 76.9731C39.4307 80.7662 40.4325 84.2556 40.4325 87.4439C40.4325 90.052 39.7337 92.1893 38.3362 93.856C36.9387 95.5227 34.8669 96.3574 32.121 96.3574C29.809 96.3574 27.7837 95.3065 26.0504 93.2047C24.3144 91.1029 22.9415 88.3743 21.9315 85.0164C20.9189 81.6584 20.3648 78.0733 20.2692 74.2556H20.0536C19.9553 78.3634 19.6797 82.4685 19.2211 86.5736C18.7625 90.6814 18.2466 94.1105 17.668 96.8637H17.8836C18.7025 95.4625 19.9062 94.7619 21.4975 94.7619C22.3655 94.7619 23.7631 95.052 25.6901 95.6321C26.943 96.0208 28.0403 96.3218 28.9793 96.538C29.9182 96.7542 30.9173 96.8637 31.9791 96.8637C35.1099 96.8637 37.7603 96.1165 39.9303 94.6168C42.0975 93.1198 43.7134 91.1384 44.7725 88.6754C45.8316 86.2123 46.3611 83.4838 46.3611 80.4871C46.3611 78.024 45.878 75.6458 44.9144 73.3497C43.9509 71.0563 42.6625 68.856 41.0466 66.7542L41.0494 66.7597Z" fill="#7D0A0D"/>
</g>
<defs>
<clipPath id="clip0_324_138">
<rect width="64" height="125" fill="white"/>
</clipPath>
</defs>
</svg>
